<svg width="256" height="256" viewBox="0 0 256 256" fill="none" xmlns="http://www.w3.org/2000/svg">
  <path d="M120 56C98 39.2 62.8 46 50.4 71.6C38.4 96.8 50 125.6 72 136C56 156 61.2 186 84 198.4C104.4 209.6 128.4 203.6 140 187.2" stroke="#163B32" stroke-width="18" stroke-linecap="round" stroke-linejoin="round"/>
  <path d="M136 56C158 39.2 193.2 46 205.6 71.6C217.6 96.8 206 125.6 184 136C200 156 194.8 186 172 198.4C151.6 209.6 127.6 203.6 116 187.2" stroke="#D97706" stroke-width="18" stroke-linecap="round" stroke-linejoin="round"/>
  <path d="M128 72V176" stroke="#111827" stroke-width="14" stroke-linecap="round"/>
  <path d="M84 92C96.8 96 104.4 104.8 107.2 116" stroke="#163B32" stroke-width="14" stroke-linecap="round"/>
  <path d="M86 160C98.8 156.4 106.8 148 109.6 136.8" stroke="#163B32" stroke-width="14" stroke-linecap="round"/>
  <path d="M172 92C159.2 96 151.6 104.8 148.8 116" stroke="#D97706" stroke-width="14" stroke-linecap="round"/>
  <path d="M170 160C157.2 156.4 149.2 148 146.4 136.8" stroke="#D97706" stroke-width="14" stroke-linecap="round"/>
  <circle cx="128" cy="124" r="18" fill="#111827"/>
</svg>